<svg width="101" height="100" viewBox="0 0 101 100" fill="none" xmlns="http://www.w3.org/2000/svg">
<path d="M45.458 16.6667V33.3334C45.4591 34.8384 45.1634 36.3289 44.588 37.7196C44.0125 39.1103 43.1686 40.3739 42.1044 41.4381C41.0401 42.5023 39.7765 43.3463 38.3859 43.9217C36.9952 44.4972 35.5047 44.7928 33.9996 44.7917H17.333C14.9445 44.7912 12.616 44.0438 10.6734 42.6541C8.73082 41.2644 7.27146 39.3021 6.49964 37.0417C6.07999 35.8506 5.86856 34.5962 5.87464 33.3334V16.6667C5.87354 15.1617 6.16917 13.6712 6.74462 12.2805C7.32007 10.8898 8.16404 9.62623 9.22826 8.562C10.2925 7.49778 11.5561 6.65381 12.9468 6.07836C14.3374 5.50291 15.8279 5.20728 17.333 5.20838H33.9996C35.2625 5.2023 36.5169 5.41373 37.708 5.83338C39.9683 6.6052 41.9307 8.06456 43.3204 10.0071C44.7101 11.9497 45.4575 14.2782 45.458 16.6667Z" fill="#1494EB"/>
<path d="M95.4579 25.0002C95.4597 29.1975 94.1265 33.2867 91.6511 36.6764C89.1756 40.066 85.6862 42.5805 81.6874 43.8562C77.6886 45.132 73.3877 45.1028 69.4066 43.7729C65.4255 42.4431 61.9705 39.8814 59.5412 36.4585C57.147 33.1184 55.8643 29.1097 55.8746 25.0002C55.879 19.7524 57.9656 14.7209 61.6763 11.0102C65.387 7.29951 70.4185 5.21291 75.6662 5.2085C80.9133 5.21511 85.9435 7.30242 89.6538 11.0126C93.364 14.7229 95.4513 19.7531 95.4579 25.0002Z" fill="#FFCB03"/>
<path d="M37.708 5.83338C36.4741 13.6669 32.7886 20.9075 27.1812 26.515C21.5738 32.1224 14.3331 35.8078 6.49964 37.0417C6.07999 35.8506 5.86856 34.5962 5.87464 33.3334V16.6667C5.87354 15.1617 6.16917 13.6712 6.74462 12.2805C7.32007 10.8898 8.16404 9.62623 9.22826 8.562C10.2925 7.49778 11.5561 6.65381 12.9468 6.07836C14.3374 5.50291 15.8279 5.20728 17.333 5.20838H33.9996C35.2625 5.2023 36.5169 5.41373 37.708 5.83338Z" fill="#46BCFC"/>
<path d="M87.1246 8.87498C85.4784 15.5505 82.0385 21.6489 77.1768 26.5105C72.3151 31.3722 66.2167 34.8122 59.5412 36.4583C57.147 33.1182 55.8643 29.1095 55.8746 25C55.879 19.7523 57.9656 14.7207 61.6763 11.01C65.387 7.29933 70.4185 5.21273 75.6662 5.20831C79.7758 5.19799 83.7845 6.48077 87.1246 8.87498Z" fill="#FFD869"/>
<path d="M95.4578 66.6667V83.3333C95.4589 84.8384 95.1633 86.3289 94.5879 87.7195C94.0124 89.1102 93.1684 90.3738 92.1042 91.438C91.04 92.5023 89.7764 93.3462 88.3857 93.9217C86.995 94.4971 85.5045 94.7928 83.9995 94.7917H67.3328C65.8278 94.7928 64.3373 94.4971 62.9466 93.9217C61.556 93.3462 60.2924 92.5023 59.2281 91.438C58.1639 90.3738 57.3199 89.1102 56.7445 87.7195C56.169 86.3289 55.8734 84.8384 55.8745 83.3333V66.6667C55.8734 65.1616 56.169 63.6711 56.7445 62.2805C57.3199 60.8898 58.1639 59.6262 59.2281 58.562C60.2924 57.4977 61.556 56.6538 62.9466 56.0783C64.3373 55.5029 65.8278 55.2072 67.3328 55.2083H83.9995C84.9703 55.2045 85.9372 55.3306 86.8745 55.5833C89.335 56.2114 91.5154 57.6428 93.0702 59.6504C94.625 61.6581 95.4653 64.1273 95.4578 66.6667ZM45.4578 66.6667V83.3333C45.4589 84.8384 45.1633 86.3289 44.5879 87.7195C44.0124 89.1102 43.1684 90.3738 42.1042 91.438C41.04 92.5023 39.7764 93.3462 38.3857 93.9217C36.995 94.4971 35.5046 94.7928 33.9995 94.7917H17.3328C15.8278 94.7928 14.3373 94.4971 12.9466 93.9217C11.556 93.3462 10.2924 92.5023 9.22814 91.438C8.16392 90.3738 7.31994 89.1102 6.7445 87.7195C6.16905 86.3289 5.87342 84.8384 5.87451 83.3333V66.6667C5.87342 65.1616 6.16905 63.6711 6.7445 62.2805C7.31994 60.8898 8.16392 59.6262 9.22814 58.562C10.2924 57.4977 11.556 56.6538 12.9466 56.0783C14.3373 55.5029 15.8278 55.2072 17.3328 55.2083H33.9995C34.9703 55.2045 35.9372 55.3306 36.8745 55.5833C39.335 56.2114 41.5154 57.6428 43.0702 59.6504C44.625 61.6581 45.4653 64.1273 45.4578 66.6667Z" fill="#1494EB"/>
<path d="M36.8745 55.5833C34.9604 62.6831 31.0012 69.0634 25.4894 73.9306C19.9776 78.7979 13.1565 81.9373 5.87451 82.9583V66.6667C5.87342 65.1616 6.16905 63.6711 6.7445 62.2805C7.31994 60.8898 8.16392 59.6262 9.22814 58.562C10.2924 57.4977 11.556 56.6538 12.9466 56.0783C14.3373 55.5029 15.8278 55.2072 17.3328 55.2083H33.9995C34.9703 55.2045 35.9372 55.3306 36.8745 55.5833ZM86.8745 55.5833C84.9604 62.6831 81.0012 69.0634 75.4894 73.9306C69.9776 78.7979 63.1565 81.9373 55.8745 82.9583V66.6667C55.8734 65.1616 56.1691 63.6711 56.7445 62.2805C57.3199 60.8898 58.1639 59.6262 59.2281 58.562C60.2924 57.4977 61.556 56.6538 62.9466 56.0783C64.3373 55.5029 65.8278 55.2072 67.3329 55.2083H83.9995C84.9703 55.2045 85.9372 55.3306 86.8745 55.5833Z" fill="#46BCFC"/>
</svg>
