<svg width="101" height="100" viewBox="0 0 101 100" fill="none" xmlns="http://www.w3.org/2000/svg">
<g clip-path="url(#clip0_3226_2596)">
<path d="M93.2935 73.2422C96.4239 66.8785 98.1851 59.7195 98.1851 52.1484C98.1851 25.7207 76.7612 4.29688 50.3335 4.29688C23.9058 4.29688 2.48193 25.7207 2.48193 52.1484C2.48193 59.7195 4.24307 66.8785 7.37353 73.2422H93.2935Z" fill="#64C0F4"/>
<path d="M35.7124 48.8406H39.7712V51.8179H35.7124V48.8406ZM60.8997 48.8406H64.9585V51.8179H60.8997V48.8406Z" fill="#0F3E4C"/>
<path d="M36.3603 51.5168C34.2224 54.7439 35.0519 58.6898 36.1388 61.4516C39.9365 71.1 50.1687 74.7211 50.2716 74.7566L50.3353 74.7785L50.399 74.7566C50.5019 74.7211 60.7343 71.1 64.532 61.4516C65.6187 58.6906 66.448 54.7457 64.3117 51.5189L64.2796 51.5049C62.8796 50.8924 61.368 50.5762 59.8398 50.5762H40.8277C39.2995 50.5762 37.7879 50.8924 36.3878 51.5049L36.3603 51.5168Z" fill="#EBF0F2"/>
<path d="M36.3877 51.5048L36.3604 51.5167C34.2223 54.7439 35.052 58.6898 36.1387 61.4515C39.9364 71.0999 50.1686 74.721 50.2717 74.7566L50.3354 74.7785L50.3991 74.7566C50.404 74.7548 50.4335 74.7445 50.4842 74.7255C50.4346 74.6744 50.387 74.6232 50.3354 74.5718C43.3614 67.5978 48.0698 61.1861 48.0698 61.1861L43.2688 50.5759H40.8276C39.2994 50.5761 37.7878 50.8923 36.3877 51.5048Z" fill="#C2D4E6"/>
<path d="M88.6363 63.3111C87.5945 61.4492 85.9393 60.0061 83.9527 59.2277L78.4391 57.0669C79.0334 59.4136 77.818 62.3015 74.8225 65.6529C70.4682 70.5242 64.0459 72.9816 59.4252 74.1853C54.4068 75.4925 50.3688 75.6449 50.342 75.6462C50.3018 75.6447 46.2715 75.4935 41.2541 74.1874C36.6305 72.9839 30.2045 70.5263 25.8482 65.6527C22.8521 62.3007 21.6367 59.4123 22.2318 57.0652L16.7145 59.2275C14.728 60.006 13.0728 61.449 12.0309 63.3109C10.4939 66.056 8.84727 69.5089 7.27637 73.0468C12.0596 82.8835 20.1146 90.8343 30.0254 95.4869V90.6023C30.0254 89.4298 30.9846 88.4706 32.157 88.4706H68.6414C69.8139 88.4706 70.773 89.4298 70.773 90.6023V95.4249C80.6234 90.7638 88.6281 82.8396 93.3902 73.0466C91.8195 69.5089 90.1729 66.056 88.6363 63.3111Z" fill="#2C2C42"/>
<path d="M25.85 66.842C26.0968 66.7197 26.3081 66.5361 26.4637 66.3088C26.2538 66.0946 26.0485 65.876 25.848 65.6529C22.8519 62.301 21.6365 59.4125 22.2316 57.0654L16.7143 59.2277C14.7278 60.0062 13.0726 61.4493 12.0307 63.3111C10.4939 66.0561 8.84727 69.509 7.27637 73.0469C9.72695 78.0865 13.0383 82.6293 17.016 86.4891C17.8227 82.9648 19.0633 77.5881 19.9203 74.0783C21.0008 69.6537 24.4504 67.5357 25.85 66.842Z" fill="#212135"/>
<path d="M50.3334 100C57.7229 100 64.7207 98.3248 70.9686 95.3336V90.2117C70.9686 89.0393 70.0094 88.0801 68.8369 88.0801H31.9617C30.7893 88.0801 29.8301 89.0393 29.8301 90.2117V95.3953C36.0445 98.3473 42.9957 100 50.3334 100Z" fill="#FBCC68"/>
<path d="M46.9579 92.8652C46.9579 90.602 48.4884 88.6803 50.5651 88.0801H31.9622C30.7897 88.0801 29.8306 89.0393 29.8306 90.2117V95.3953C35.0835 97.8904 40.864 99.4525 46.9581 99.8777L46.9579 92.8652Z" fill="#EFAA42"/>
<path d="M66.8342 52.5189L64.5637 51.6291L64.2795 51.5046C62.8794 50.8921 61.3678 50.5759 59.8396 50.5759H40.8275C39.2994 50.5759 37.7877 50.8921 36.3877 51.5046L36.1035 51.6291L33.833 52.5189C35.6803 59.9136 42.3668 65.3916 50.3336 65.3916C58.3004 65.3916 64.9869 59.9136 66.8342 52.5189Z" fill="#C2D4E6"/>
<path d="M37.5756 51.2428C37.7021 51.2119 37.8287 51.1805 37.9563 51.151C38.0369 51.0701 38.117 50.9852 38.1961 50.8965C37.5769 51.0468 36.9719 51.2503 36.3877 51.5047L36.1035 51.6291L33.833 52.5189C35.385 58.7316 40.3533 63.5898 46.6264 64.9848C46.9812 62.6695 48.0697 61.1861 48.0697 61.1861L47.8762 60.7584C42.8898 59.8205 38.8926 56.085 37.5756 51.2428Z" fill="#99B8DA"/>
<path d="M63.2238 51.1061C62.1301 50.755 60.9884 50.5763 59.8396 50.5762H40.8275C39.6766 50.5762 38.535 50.7559 37.4434 51.1061C38.7848 56.9887 44.0445 61.3799 50.3336 61.3799C56.6227 61.3799 61.8824 56.9887 63.2238 51.1061Z" fill="#E0D3CD"/>
<path d="M59.716 45.6676C58.0711 47.9959 55.8652 50.1717 52.9232 51.5948C52.1229 51.9819 51.2441 52.1956 50.3551 52.1973H50.3207C49.4277 52.1959 48.5457 51.9795 47.7422 51.5903C44.8014 50.1657 42.5969 47.9885 40.9529 45.6594C40.3617 47.8485 39.2648 50.2329 37.9559 51.5417C37.8283 51.5711 37.702 51.6024 37.5752 51.6334C39.1027 57.2491 44.2338 61.3799 50.3332 61.3799C56.4326 61.3799 61.5637 57.2491 63.091 51.6334C62.9645 51.6026 62.8379 51.5711 62.7104 51.5417C61.4035 50.2346 60.3076 47.8543 59.716 45.6676Z" fill="#FFAA7B"/>
<path d="M50.7559 52.1805C50.6225 52.1908 50.4888 52.1963 50.3551 52.1971H50.3207C49.4277 52.1957 48.5457 51.9793 47.7422 51.59C44.8014 50.1654 42.5969 47.9883 40.9529 45.6592C40.3619 47.8482 39.2648 50.2326 37.9559 51.5414C37.8283 51.5709 37.7018 51.6021 37.5752 51.6332C38.9094 56.5381 42.9928 60.3098 48.0693 61.1859C49.718 58.2975 50.4459 54.9264 50.7559 52.1805Z" fill="#F7996B"/>
<path d="M67.7449 26.873C67.0252 26.2134 65.5918 26.5478 64.9719 26.9517C65.1076 27.7972 65.1154 28.6625 64.998 29.5166L64.0719 34.8437C64.0719 35.2732 64.0211 35.6945 63.9961 36.1084C65.7797 36.6462 66.8977 35.0451 67.0469 33.9462C67.111 33.4732 67.2164 33.0067 67.3619 32.5521C67.8365 31.0705 69.548 28.5255 67.7449 26.873Z" fill="#FFAA7B"/>
<path d="M32.9258 26.873C33.6455 26.2134 35.0791 26.5478 35.6988 26.9517C35.5636 27.8007 35.5547 28.665 35.6727 29.5166L36.5988 34.8437C36.5988 35.2732 36.6975 35.6945 36.7223 36.1084C34.9387 36.6462 33.7731 35.0451 33.6236 33.9462C33.5595 33.4732 33.4541 33.0067 33.3086 32.5521C32.8342 31.0705 31.1227 28.5255 32.9258 26.873Z" fill="#F7996B"/>
<path d="M64.5313 25.3058C64.3667 24.8763 64.1593 24.4414 63.8978 24.031C63.4548 23.3361 63.2601 22.5142 63.3194 21.6947C63.4901 19.3377 63.3985 14.7277 60.3044 13.3353C57.6755 12.1523 54.4507 12.8373 52.3942 13.5213C51.0575 13.9654 49.613 13.9654 48.2763 13.5213C46.2198 12.8375 42.995 12.1525 40.3661 13.3353C37.263 14.7316 37.1798 19.364 37.3524 21.7148C37.4136 22.5293 37.2103 23.3417 36.7726 24.0312C36.5304 24.4113 36.3345 24.8125 36.1761 25.2109C35.6284 26.5886 35.4771 28.0924 35.6786 29.5613L36.404 34.8439C36.404 34.8439 38.2103 47.3631 47.7423 51.981C48.5458 52.3703 49.4278 52.5867 50.3208 52.5881H50.3552C51.2442 52.5863 52.1229 52.3726 52.9233 51.9855C62.2062 47.4955 64.1673 35.5156 64.2663 34.8732L64.2667 34.8441L64.9981 29.517C65.1929 28.0965 65.045 26.6459 64.5313 25.3058Z" fill="#FFBB99"/>
<path d="M46.8042 34.8438L46.3419 29.5612C46.2134 28.0922 46.3099 26.5887 46.6589 25.2108C46.7599 24.8123 46.8847 24.4112 47.039 24.0311C47.3191 23.3414 47.4466 22.528 47.4085 21.7147C47.3066 19.5367 47.3458 15.4028 48.9244 13.6957C48.7054 13.6487 48.489 13.5904 48.2761 13.5211C46.2197 12.8373 42.9951 12.1524 40.3661 13.3352C37.263 14.7315 37.1798 19.3639 37.3525 21.7147C37.4137 22.5291 37.2103 23.3415 36.7726 24.0311C36.5304 24.4112 36.3345 24.8123 36.1761 25.2108C35.6283 26.5885 35.4771 28.0922 35.6786 29.5612L36.404 34.8438C36.404 34.8438 38.2103 47.3629 47.7423 51.9809C48.5458 52.3701 49.4279 52.5866 50.3208 52.5879H50.355C51.2441 52.5862 52.1228 52.3725 52.9232 51.9854C53.1526 51.8738 53.3792 51.7568 53.6031 51.6344C47.9019 46.7688 46.8042 34.8438 46.8042 34.8438Z" fill="#FFAA7B"/>
<path d="M70.0798 16.4166C70.9855 16.2787 71.9826 15.5658 72.531 15.1207C72.7283 14.9605 72.6875 14.6535 72.4593 14.5418C68.1736 12.4447 65.5988 5.64663 62.1148 3.48882C59.133 1.64195 56.5617 2.70562 55.7523 3.13492C55.6793 3.17353 55.5947 3.18444 55.5143 3.16563C55.4339 3.14682 55.3629 3.09956 55.3146 3.03257C54.1634 1.42808 52.2527 0.475931 51.1302 0.0259307C50.8306 -0.0941865 50.5449 0.222024 50.6945 0.508157C51.1902 1.45659 51.399 2.22906 51.4863 2.73863C51.5336 3.01519 51.2449 3.22886 50.9933 3.10445C47.2349 1.24683 40.5517 2.56929 36.4718 7.55777C33.0773 11.7084 30.4617 12.3306 29.5187 12.4097C29.4686 12.4139 29.4199 12.429 29.3763 12.454C29.3326 12.479 29.2949 12.5132 29.2659 12.5543C29.2369 12.5954 29.2172 12.6424 29.2083 12.6919C29.1994 12.7414 29.2014 12.7923 29.2142 12.841C29.5796 14.221 30.9892 15.115 31.5859 15.439C31.7517 15.5291 31.8209 15.7394 31.7261 15.9025C31.4429 16.3902 30.8377 16.6859 30.4824 16.8244C30.4059 16.8542 30.3427 16.9106 30.3043 16.9832C30.2659 17.0557 30.2549 17.1397 30.2732 17.2197C30.616 18.7457 32.2332 25.6644 33.9453 28.3466C35.1388 30.2166 35.7914 32.7425 36.1158 34.3976C36.1619 34.6328 36.5043 34.6117 36.5211 34.3726C36.6484 32.5669 36.8332 29.6234 36.9052 26.8654C36.9937 23.4818 39.9496 21.4933 41.2964 20.7611C41.5564 20.6197 41.8619 20.8519 41.798 21.1408L41.614 21.9742C41.5613 22.2132 41.7673 22.431 42.0086 22.3908C52.1046 20.7015 55.8121 17.2132 57.1658 15.039C57.2115 14.9653 57.2806 14.909 57.3621 14.8791C57.4435 14.8492 57.5326 14.8475 57.6152 14.8742C57.7711 14.9242 57.8769 15.0671 57.8849 15.2306C58.2005 21.7269 63.2232 22.5185 63.9478 25.4003C64.5423 27.7648 64.391 32.2509 64.2765 34.3677C64.2609 34.6572 64.6578 34.7607 64.7816 34.4986C66.3564 31.1673 66.1302 26.5615 68.6328 23.5173C70.6662 21.0439 71.6123 19.4212 71.9722 18.7318C72.0716 18.5416 71.9703 18.314 71.7662 18.2478C70.8521 17.9521 70.2339 17.4033 69.8687 16.9814C69.6918 16.7769 69.8119 16.4574 70.0798 16.4166ZM73.4537 52.3959C72.8889 52.2051 72.4052 51.8289 72.0812 51.3285C70.9627 49.5935 67.631 45.864 60.8998 48.8406C60.8998 48.8406 68.1589 51.7035 64.3503 61.3798C60.5418 71.0562 50.3355 74.5718 50.3355 74.5718V75.8414C50.3355 75.8414 66.4722 75.288 74.9683 65.7828C83.0923 56.6937 76.1162 53.2996 73.4537 52.3959ZM27.217 52.3959C27.7817 52.2051 28.2654 51.8289 28.5894 51.3285C29.7082 49.5935 33.0396 45.864 39.7711 48.8406C39.7711 48.8406 32.5119 51.7035 36.3205 61.3798C40.1291 71.0562 50.3353 74.5718 50.3353 74.5718V75.8414C50.3353 75.8414 34.1986 75.288 25.7025 65.7828C17.5783 56.6937 24.5545 53.2996 27.217 52.3959Z" fill="#404051"/>
<path d="M26.3425 66.4649C26.4693 66.323 26.5687 66.159 26.6359 65.981C27.8289 62.7851 30.6164 64.4231 32.0949 61.7831C33.6574 58.9933 35.8273 59.9669 35.8273 59.9669C33.2275 51.4224 39.7711 48.8405 39.7711 48.8405C33.0396 45.864 29.7082 49.5935 28.5894 51.3284C28.2654 51.8288 27.7817 52.205 27.217 52.3958C24.5545 53.2993 17.5783 56.6937 25.7025 65.7827C25.9108 66.0149 26.1242 66.2423 26.3425 66.4649Z" fill="#2C2C42"/>
<path d="M73.8982 81.3748V93.8039C74.8961 93.2378 75.8733 92.6361 76.8279 92V81.3748C76.8279 80.9863 76.6736 80.6137 76.3989 80.339C76.1242 80.0642 75.7516 79.9099 75.3631 79.9099C74.9746 79.9099 74.602 80.0642 74.3273 80.339C74.0526 80.6137 73.8982 80.9863 73.8982 81.3748ZM26.9004 81.3748C26.9004 80.5656 26.2445 79.9099 25.4355 79.9099C24.6266 79.9099 23.9707 80.5656 23.9707 81.3748V92.0878C24.9256 92.7191 25.9028 93.316 26.9004 93.8773V81.3748Z" fill="#212135"/>
<path d="M64.8396 72.2528C66.3238 72.2528 67.527 71.0496 67.527 69.5655C67.527 68.0813 66.3238 66.8782 64.8396 66.8782C63.3555 66.8782 62.1523 68.0813 62.1523 69.5655C62.1523 71.0496 63.3555 72.2528 64.8396 72.2528Z" fill="#2C2C42"/>
<path d="M35.8274 72.2528C37.3116 72.2528 38.5147 71.0496 38.5147 69.5655C38.5147 68.0813 37.3116 66.8782 35.8274 66.8782C34.3433 66.8782 33.1401 68.0813 33.1401 69.5655C33.1401 71.0496 34.3433 72.2528 35.8274 72.2528Z" fill="#2C2C42"/>
<path d="M64.8394 68.7075C64.4509 68.7075 64.0783 68.8619 63.8036 69.1366C63.5288 69.4113 63.3745 69.7839 63.3745 70.1724V91.5966C63.3745 92.4058 64.0304 93.0614 64.8394 93.0614C65.6483 93.0614 66.3042 92.4058 66.3042 91.5966V70.1724C66.3042 69.7839 66.1499 69.4113 65.8752 69.1366C65.6004 68.8619 65.2279 68.7075 64.8394 68.7075Z" fill="#545460"/>
<path d="M64.8394 87.1943C63.7284 87.1943 62.8276 88.0949 62.8276 89.2061V92.3768C62.8276 93.4879 63.7282 94.3885 64.8394 94.3885C65.9503 94.3885 66.8511 93.4879 66.8511 92.3768V89.2061C66.8511 88.0949 65.9503 87.1943 64.8394 87.1943Z" fill="#EBF0F2"/>
<path d="M35.8271 68.7075C35.4386 68.7075 35.0661 68.8619 34.7913 69.1366C34.5166 69.4113 34.3623 69.7839 34.3623 70.1724V91.5966C34.3623 92.4058 35.0182 93.0614 35.8271 93.0614C36.6361 93.0614 37.292 92.4058 37.292 91.5966V70.1724C37.292 69.7839 37.1377 69.4113 36.8629 69.1366C36.5882 68.8619 36.2156 68.7075 35.8271 68.7075Z" fill="#545460"/>
<path d="M35.8271 87.1943C34.7162 87.1943 33.8154 88.0949 33.8154 89.2061V92.3768C33.8154 93.4879 34.716 94.3885 35.8271 94.3885C36.9383 94.3885 37.8389 93.4879 37.8389 92.3768V89.2061C37.8389 88.0949 36.9383 87.1943 35.8271 87.1943Z" fill="#EBF0F2"/>
<path d="M64.8395 91.2632C63.7285 91.2632 62.8277 90.3626 62.8277 89.2515V92.3765C62.8277 93.4876 63.7285 94.3882 64.8395 94.3882C65.9506 94.3882 66.8512 93.4876 66.8512 92.3765V89.2515C66.8512 90.3628 65.9504 91.2632 64.8395 91.2632ZM35.8271 91.2632C34.7162 91.2632 33.8154 90.3626 33.8154 89.2515V92.3765C33.8154 93.4876 34.716 94.3882 35.8271 94.3882C36.9383 94.3882 37.8389 93.4876 37.8389 92.3765V89.2515C37.8389 90.3628 36.9383 91.2632 35.8271 91.2632Z" fill="#C2D4E6"/>
<path d="M47.4267 9.55988C42.4592 5.59855 50.9931 3.10461 50.9931 3.10461C47.2347 1.24699 40.5515 2.56945 36.4717 7.55793C33.0771 11.7085 30.4615 12.3308 29.5185 12.4099C29.4684 12.4141 29.4198 12.4292 29.3761 12.4542C29.3324 12.4791 29.2947 12.5134 29.2657 12.5545C29.2367 12.5956 29.217 12.6426 29.2081 12.6921C29.1992 12.7416 29.2012 12.7925 29.214 12.8411C29.5795 14.2212 30.989 15.1152 31.5857 15.4392C31.7515 15.5292 31.8207 15.7396 31.726 15.9027C31.4428 16.3903 30.8375 16.6861 30.4822 16.8245C30.4057 16.8544 30.3425 16.9107 30.3042 16.9833C30.2658 17.0559 30.2547 17.1398 30.273 17.2198C30.6158 18.7458 32.233 25.6646 33.9451 28.3468C35.1386 30.2167 35.7912 32.7427 36.1156 34.3978C36.1617 34.6329 36.5041 34.6118 36.5209 34.3728C36.6482 32.5671 36.833 29.6236 36.9049 26.8655C36.9933 23.482 39.9492 21.4935 41.2961 20.7612C41.556 20.6198 41.8615 20.8521 41.7976 21.1409L41.6136 21.9743C41.6015 22.0296 41.603 22.0871 41.6182 22.1416C41.6333 22.1962 41.6616 22.2462 41.7006 22.2873C41.7395 22.3284 41.7879 22.3593 41.8416 22.3774C41.8952 22.3954 41.9525 22.4001 42.0084 22.3909C44.0537 22.0487 45.8328 21.6318 47.3873 21.1679C45.2353 15.7546 52.3937 13.5208 47.4267 9.55988Z" fill="#2C2C42"/>
</g>
<defs>
<clipPath id="clip0_3226_2596">
<rect width="100" height="100" fill="white" transform="translate(0.333496)"/>
</clipPath>
</defs>
</svg>
