<svg width="21" height="20" viewBox="0 0 21 20" fill="none" xmlns="http://www.w3.org/2000/svg">
<path d="M10.5001 19.3657C15.4499 19.3657 19.4626 15.353 19.4626 10.4032C19.4626 5.45332 15.4499 1.44067 10.5001 1.44067C5.55025 1.44067 1.5376 5.45332 1.5376 10.4032C1.5376 15.353 5.55025 19.3657 10.5001 19.3657Z" fill="#D68F30"/>
<path d="M2.14697 12.7313V13.6469C2.24072 13.8891 2.34541 14.1282 2.45947 14.3594V12.7313H2.14697ZM3.16885 14.4547V15.5547C3.29385 15.7313 3.42354 15.9047 3.55947 16.0719V14.4547H3.16885ZM4.52197 15.8922V17.0782C4.67354 17.2141 4.82979 17.3438 4.99072 17.4688V15.8922H4.52197ZM6.1876 16.9844V18.2594C6.34072 18.3438 6.49697 18.4235 6.65635 18.5V16.9844H6.1876ZM8.07666 17.6797V19.0297C8.23135 19.0735 8.3876 19.1125 8.54541 19.1485V17.6797H8.07666ZM10.2876 17.9204V19.3594C10.3579 19.361 10.4282 19.3641 10.5001 19.3641C10.586 19.3641 10.672 19.3594 10.7563 19.3579V17.9204H10.2876ZM12.4985 17.6688V19.1375C12.6563 19.1016 12.8126 19.061 12.9673 19.0172V17.6688H12.4985ZM14.3829 16.9641V18.4813C14.5423 18.4047 14.6985 18.3219 14.8517 18.236V16.9641H14.3829ZM16.0438 15.8625V17.4407C16.2046 17.3149 16.361 17.1836 16.5126 17.0469V15.8625H16.0438ZM17.8579 14.4204H17.4673V16.0375C17.6032 15.8688 17.7345 15.6954 17.8579 15.5172V14.4204ZM18.8735 12.6907H18.561V14.3219C18.6751 14.086 18.7798 13.8438 18.8735 13.5985V12.6907Z" fill="#BC6F00"/>
<path d="M10.5001 18.5593C15.4499 18.5593 19.4626 14.5466 19.4626 9.59678C19.4626 4.64692 15.4499 0.634277 10.5001 0.634277C5.55025 0.634277 1.5376 4.64692 1.5376 9.59678C1.5376 14.5466 5.55025 18.5593 10.5001 18.5593Z" fill="#FFF176"/>
<path d="M10.5 17.761C15.0089 17.761 18.6641 14.1058 18.6641 9.59692C18.6641 5.08804 15.0089 1.43286 10.5 1.43286C5.99111 1.43286 2.33594 5.08804 2.33594 9.59692C2.33594 14.1058 5.99111 17.761 10.5 17.761Z" fill="#F2BC1A"/>
<path d="M2.32044 9.90942C2.26262 8.83442 2.44856 7.7438 2.82356 6.72192C3.21419 5.70317 3.81262 4.76099 4.56731 3.96099C6.08294 2.35786 8.28294 1.42817 10.5001 1.41724C12.7173 1.42974 14.9189 2.35786 16.4314 3.96255C17.1876 4.76099 17.7845 5.70474 18.1751 6.72192C18.5517 7.74536 18.7376 8.83442 18.6782 9.90942H18.647C18.6437 8.83704 18.4315 7.77557 18.022 6.78442C17.6118 5.79438 17.0126 4.89375 16.2579 4.13286C15.5028 3.37278 14.6056 2.76861 13.6173 2.35474C12.6293 1.94217 11.5693 1.72973 10.4986 1.72973C9.42787 1.72973 8.36782 1.94217 7.37981 2.35474C6.39155 2.76861 5.49432 3.37278 4.73919 4.13286C3.98422 4.8935 3.38499 5.79419 2.97512 6.78442C2.56567 7.77557 2.35337 8.83704 2.35012 9.90942H2.32044Z" fill="#E08F00"/>
<path d="M10.5001 0.635986C5.5501 0.635986 1.5376 4.64849 1.5376 9.59849C1.5376 14.5485 5.5501 18.561 10.5001 18.561C15.4501 18.561 19.4626 14.5485 19.4626 9.59849C19.4626 4.64849 15.4501 0.635986 10.5001 0.635986ZM10.5001 17.7625C5.99072 17.7625 2.33604 14.1079 2.33604 9.59849C2.33604 5.08755 5.99072 1.43286 10.5001 1.43286C15.0095 1.43286 18.6642 5.08755 18.6642 9.59692C18.6642 14.1063 15.0095 17.7625 10.5001 17.7625Z" fill="#FFF176"/>
<path d="M6.43613 3.33594L6.63457 3.95L7.28145 3.70313V3.95L6.75801 4.32969L6.95801 4.69531V4.94375L6.43613 4.56406L5.9127 4.94375V4.69531L6.1127 4.32969L5.59082 3.95V3.70313L6.23613 3.95L6.43613 3.33594ZM3.93926 6.86094L4.13926 7.475L4.78457 7.22813V7.475L4.2627 7.85469L4.4627 8.22188V8.46875L3.93926 8.08906L3.41738 8.46875V8.22188L3.61738 7.85469L3.09395 7.475V7.22813L3.74082 7.475L3.93926 6.86094ZM3.86582 11.2063L4.06582 11.8203L4.71113 11.5734V11.8203L4.18926 12.2L4.38926 12.5672V12.8141L3.86582 12.4344L3.34395 12.8141V12.5672L3.54395 12.2L3.02051 11.8203V11.5734L3.66738 11.8203L3.86582 11.2063ZM6.53145 14.6563L6.73145 15.2703L7.37676 15.0234V15.2703L6.85488 15.65L7.05488 16.0156V16.2641L6.53145 15.8844L6.00957 16.2641V16.0156L6.20957 15.65L5.68613 15.2703V15.0234L6.33301 15.2703L6.53145 14.6563ZM14.5643 3.33594L14.3658 3.95L13.7189 3.70313V3.95L14.2424 4.32969L14.0424 4.69531V4.94375L14.5643 4.56406L15.0877 4.94375V4.69531L14.8877 4.32969L15.4096 3.95V3.70313L14.7643 3.95L14.5643 3.33594ZM17.0611 6.86094L16.8611 7.475L16.2158 7.22813V7.475L16.7377 7.85469L16.5377 8.22188V8.46875L17.0611 8.08906L17.583 8.46875V8.22188L17.383 7.85469L17.9064 7.475V7.22813L17.2596 7.475L17.0611 6.86094ZM17.1346 11.2063L16.9346 11.8203L16.2893 11.5734V11.8203L16.8111 12.2L16.6111 12.5672V12.8141L17.1346 12.4344L17.6564 12.8141V12.5672L17.4564 12.2L17.9799 11.8203V11.5734L17.333 11.8203L17.1346 11.2063ZM14.4689 14.6563L14.2689 15.2703L13.6236 15.0234V15.2703L14.1455 15.65L13.9455 16.0156V16.2641L14.4689 15.8844L14.9908 16.2641V16.0156L14.7908 15.65L15.3143 15.2703V15.0234L14.6674 15.2703L14.4689 14.6563Z" fill="#D38200"/>
<path d="M14.4688 14.4077L14.6673 15.0218H15.3142L14.7907 15.4015L14.9907 16.0155L14.4688 15.6358L13.9454 16.0155L14.1454 15.4015L13.6235 15.0218H14.2688L14.4688 14.4077ZM17.1345 10.9593L17.3329 11.5733H17.9798L17.4563 11.953L17.6563 12.5671L17.1345 12.1874L16.611 12.5671L16.811 11.953L16.2892 11.5733H16.9345L17.1345 10.9593ZM17.061 6.61397L17.2595 7.22803H17.9063L17.3829 7.60772L17.5829 8.22178L17.061 7.84209L16.5376 8.22178L16.7376 7.60772L16.2157 7.22803H16.861L17.061 6.61397ZM14.5642 3.0874L14.7642 3.70146H15.4095L14.8876 4.08115L15.0876 4.69521L14.5642 4.31553L14.0423 4.69521L14.2423 4.08115L13.7188 3.70146H14.3657L14.5642 3.0874Z" fill="#FFF176"/>
<path d="M10.5079 16.0156L10.7079 16.6297L11.3532 16.3828V16.6297L10.8313 17.0094L11.0313 17.3766V17.6234L10.5079 17.2438L9.98604 17.6234V17.3766L10.186 17.0094L9.6626 16.6297V16.3828L10.3095 16.6297L10.5079 16.0156Z" fill="#D38200"/>
<path d="M10.5079 15.6875L10.7079 16.3016H11.3532L10.8313 16.6813L11.0313 17.2953L10.5079 16.9156L9.98604 17.2953L10.186 16.6813L9.6626 16.3016H10.3095L10.5079 15.6875Z" fill="#FFF176"/>
<path d="M10.5079 2.01416L10.7079 2.62822L11.3532 2.38135V2.62822L10.8313 3.00791L11.0313 3.3751V3.62197L10.5079 3.24229L9.98604 3.62197V3.3751L10.186 3.00791L9.6626 2.62822V2.38135L10.3095 2.62822L10.5079 2.01416Z" fill="#D38200"/>
<path d="M10.508 1.76709L10.708 2.38115H11.3533L10.8314 2.76084L11.0314 3.3749L10.508 2.99521L9.98613 3.3749L10.1861 2.76084L9.6627 2.38115H10.3096L10.508 1.76709ZM6.53145 14.4077L6.33301 15.0218H5.68613L6.20957 15.4015L6.00957 16.0155L6.53145 15.6358L7.05488 16.0155L6.85488 15.4015L7.37676 15.0218H6.73145L6.53145 14.4077ZM3.86582 10.9593L3.66738 11.5733H3.02051L3.54395 11.953L3.34395 12.5671L3.86582 12.1874L4.38926 12.5671L4.18926 11.953L4.71113 11.5733H4.06582L3.86582 10.9593ZM3.93926 6.61397L3.74082 7.22803H3.09395L3.61738 7.60771L3.41738 8.22178L3.93926 7.84209L4.4627 8.22178L4.2627 7.60771L4.78457 7.22803H4.13926L3.93926 6.61397ZM6.43613 3.0874L6.23613 3.70146H5.59082L6.1127 4.08115L5.9127 4.69521L6.43613 4.31553L6.95801 4.69521L6.75801 4.08115L7.28145 3.70146H6.63457L6.43613 3.0874Z" fill="#FFF176"/>
<path d="M15.3782 7.53114C15.3782 7.47645 5.63135 7.53114 5.63135 7.53114L5.54385 7.79364V8.24208C5.54385 8.32333 5.60947 8.38895 5.69072 8.38895H15.3095C15.3907 8.38895 15.4563 8.32333 15.4563 8.24208V7.80614L15.3782 7.53114ZM15.3923 13.3593H5.67197L5.02197 13.6858L5.02979 14.1061C5.03135 14.1515 5.06885 14.189 5.11572 14.189H15.886C15.9313 14.189 15.9704 14.153 15.972 14.1061L15.9798 13.6936L15.3923 13.3593Z" fill="#D38200"/>
<path d="M7.23897 12.0812H6.67959C6.5874 12.0812 6.5124 11.7906 6.5124 11.6984L7.40459 11.6703C7.40459 11.7625 7.32959 12.0812 7.23897 12.0812ZM7.42959 9.06406H6.4874C6.41709 9.06406 6.35615 9.01719 6.33584 8.95L6.2624 8.33594H7.64209L7.57959 8.95C7.56084 9.01719 7.4999 9.06406 7.42959 9.06406ZM6.4874 12.2672H7.42959C7.4999 12.2672 7.63897 12.3109 7.65772 12.3781C7.65772 12.3781 7.65303 12.6703 7.65303 12.7859C7.65303 12.9016 7.60615 12.9859 7.50147 12.9859H6.41553C6.31084 12.9859 6.26396 12.8922 6.26396 12.7859C6.26396 12.6797 6.25928 12.3812 6.25928 12.3812C6.27959 12.3141 6.41709 12.2672 6.4874 12.2672ZM14.5046 12.0812H13.9452C13.853 12.0812 13.778 11.7906 13.778 11.6984L14.6702 11.6703C14.6702 11.7625 14.5968 12.0812 14.5046 12.0812ZM14.6952 9.06406H13.753C13.6827 9.06406 13.6218 9.01719 13.6015 8.95L13.528 8.33594H14.9077L14.8452 8.95C14.8265 9.01719 14.7655 9.06406 14.6952 9.06406ZM13.753 12.2672H14.6952C14.7655 12.2672 14.9046 12.3109 14.9233 12.3781C14.9233 12.3781 14.9187 12.6703 14.9187 12.7859C14.9187 12.9016 14.8718 12.9859 14.7671 12.9859H13.6812C13.5765 12.9859 13.5296 12.8922 13.5296 12.7859C13.5296 12.6797 13.5249 12.3812 13.5249 12.3812C13.5452 12.3141 13.6827 12.2672 13.753 12.2672ZM12.0827 12.0812H11.5233C11.4312 12.0812 11.3562 11.7906 11.3562 11.6984L12.2483 11.6703C12.2483 11.7625 12.1749 12.0812 12.0827 12.0812ZM12.2733 9.06406H11.3312C11.2608 9.06406 11.1999 9.01719 11.1796 8.95L11.1062 8.33594H12.4858L12.4233 8.95C12.4046 9.01719 12.3437 9.06406 12.2733 9.06406ZM11.3312 12.2672H12.2733C12.3437 12.2672 12.4827 12.3109 12.5015 12.3781C12.5015 12.3781 12.4968 12.6703 12.4968 12.7859C12.4968 12.9016 12.4499 12.9859 12.3452 12.9859H11.2593C11.1546 12.9859 11.1077 12.8922 11.1077 12.7859C11.1077 12.6797 11.103 12.3812 11.103 12.3812C11.1233 12.3141 11.2608 12.2672 11.3312 12.2672ZM9.66084 12.0812H9.10146C9.00928 12.0812 8.93428 11.7906 8.93428 11.6984L9.82646 11.6703C9.82646 11.7625 9.75303 12.0812 9.66084 12.0812ZM9.85146 9.06406H8.90928C8.83896 9.06406 8.77803 9.01719 8.75771 8.95L8.68428 8.33594H10.064L10.0015 8.95C9.98272 9.01719 9.92178 9.06406 9.85146 9.06406ZM8.90928 12.2672H9.85146C9.92178 12.2672 10.0608 12.3109 10.0796 12.3781C10.0796 12.3781 10.0749 12.6703 10.0749 12.7859C10.0749 12.9016 10.028 12.9859 9.92334 12.9859H8.8374C8.73272 12.9859 8.68584 12.8922 8.68584 12.7859C8.68584 12.6797 8.68115 12.3812 8.68115 12.3812C8.70147 12.3141 8.83896 12.2672 8.90928 12.2672Z" fill="#D38200"/>
<path d="M15.4486 7.11245C15.4486 7.05776 15.4205 7.0062 15.3783 6.9812L10.5064 4.21558L5.62832 6.97808C5.58145 7.0062 5.55176 7.05776 5.55176 7.11245L5.54395 7.79526C5.54395 7.8812 5.61426 7.95151 5.7002 7.95151H15.2986C15.3846 7.95151 15.4549 7.8812 15.4549 7.79526L15.4486 7.11245Z" fill="#FFF176"/>
<path d="M14.2249 6.92656L10.4999 4.8125L6.7749 6.92656H14.2249Z" fill="#F2BC1A"/>
<path d="M12.8547 6.6688L10.5 5.3313L8.14534 6.6688H12.8547ZM15.0922 12.8157H5.90784C5.81722 12.8157 5.73128 12.8547 5.67034 12.9219L5.03909 13.6266C4.99534 13.675 5.02972 13.7516 5.09534 13.7516H15.9047C15.9688 13.7516 16.0032 13.675 15.961 13.6266L15.3282 12.9219C15.2688 12.8547 15.1813 12.8157 15.0922 12.8157ZM14.5047 11.7985H13.9453C13.8532 11.7985 13.7782 11.7235 13.7782 11.6313V9.13442C13.7782 9.04224 13.8532 8.96724 13.9453 8.96724H14.5047C14.5969 8.96724 14.6719 9.04224 14.6719 9.13442V11.6329C14.6719 11.725 14.5969 11.7985 14.5047 11.7985ZM14.6969 8.7813H13.7547C13.6844 8.7813 13.6235 8.73442 13.6032 8.66724L13.5313 8.4188C13.5016 8.3188 13.5782 8.2188 13.6828 8.2188H14.7688C14.8735 8.2188 14.9485 8.3188 14.9203 8.4188L14.8485 8.66724C14.8282 8.73442 14.7657 8.7813 14.6969 8.7813ZM13.7532 11.986H14.6953C14.7657 11.986 14.8266 12.0329 14.8469 12.1L14.9188 12.3485C14.9485 12.4485 14.8719 12.5485 14.7672 12.5485H13.6813C13.5766 12.5485 13.5016 12.4485 13.5297 12.3485L13.6016 12.1C13.6219 12.0313 13.6844 11.986 13.7532 11.986ZM7.23909 11.7985H6.67972C6.58753 11.7985 6.51253 11.7235 6.51253 11.6313V9.13442C6.51253 9.04224 6.58753 8.96724 6.67972 8.96724H7.23909C7.33128 8.96724 7.40628 9.04224 7.40628 9.13442V11.6329C7.40472 11.725 7.32972 11.7985 7.23909 11.7985ZM7.42972 8.7813H6.48753C6.41722 8.7813 6.35628 8.73442 6.33597 8.66724L6.26409 8.4188C6.2344 8.3188 6.31097 8.2188 6.41565 8.2188H7.50159C7.60628 8.2188 7.68128 8.3188 7.65315 8.4188L7.58128 8.66724C7.56097 8.73442 7.50003 8.7813 7.42972 8.7813ZM6.48753 11.986H7.42972C7.50003 11.986 7.56097 12.0329 7.58128 12.1L7.65315 12.3485C7.68284 12.4485 7.60628 12.5485 7.50159 12.5485H6.41565C6.31097 12.5485 6.23597 12.4485 6.26409 12.3485L6.33597 12.1C6.35628 12.0313 6.41722 11.986 6.48753 11.986ZM9.66097 11.7985H9.10159C9.0094 11.7985 8.9344 11.7235 8.9344 11.6313V9.13442C8.9344 9.04224 9.0094 8.96724 9.10159 8.96724H9.66097C9.75315 8.96724 9.82815 9.04224 9.82815 9.13442V11.6329C9.82774 11.6769 9.80995 11.7191 9.77864 11.7501C9.74733 11.7811 9.70504 11.7985 9.66097 11.7985ZM9.85159 8.7813H8.9094C8.83909 8.7813 8.77815 8.73442 8.75784 8.66724L8.68597 8.4188C8.65628 8.3188 8.73284 8.2188 8.83753 8.2188H9.92347C10.0282 8.2188 10.1032 8.3188 10.075 8.4188L10.0032 8.66724C9.98284 8.73442 9.9219 8.7813 9.85159 8.7813ZM8.9094 11.986H9.85159C9.9219 11.986 9.98284 12.0329 10.0032 12.1L10.075 12.3485C10.1047 12.4485 10.0282 12.5485 9.92347 12.5485H8.83753C8.73284 12.5485 8.65784 12.4485 8.68597 12.3485L8.75784 12.1C8.77815 12.0313 8.83909 11.986 8.9094 11.986ZM12.0828 11.7985H11.5235C11.4313 11.7985 11.3563 11.7235 11.3563 11.6313V9.13442C11.3563 9.04224 11.4313 8.96724 11.5235 8.96724H12.0828C12.175 8.96724 12.25 9.04224 12.25 9.13442V11.6329C12.2496 11.6769 12.2318 11.7191 12.2005 11.7501C12.1692 11.7811 12.1269 11.7985 12.0828 11.7985ZM12.2735 8.7813H11.3313C11.261 8.7813 11.2 8.73442 11.1797 8.66724L11.1078 8.4188C11.0782 8.3188 11.1547 8.2188 11.2594 8.2188H12.3453C12.45 8.2188 12.525 8.3188 12.4969 8.4188L12.425 8.66724C12.4047 8.73442 12.3438 8.7813 12.2735 8.7813ZM11.3313 11.986H12.2735C12.3438 11.986 12.4047 12.0329 12.425 12.1L12.4969 12.3485C12.5266 12.4485 12.45 12.5485 12.3453 12.5485H11.2594C11.1547 12.5485 11.0797 12.4485 11.1078 12.3485L11.1797 12.1C11.2 12.0313 11.2625 11.986 11.3313 11.986Z" fill="#FFF176"/>
</svg>
