<svg width="235" height="43" viewBox="0 0 235 43" fill="none" xmlns="http://www.w3.org/2000/svg">
<rect width="32" height="10" transform="translate(0 27.5303)" fill="#8CB6B4"/>
<rect width="32" height="10" transform="matrix(0 1 -1 0 32 5.53027)" fill="#0F5E5B"/>
<path d="M57.1133 35.4103H43.0013C42.8519 35.4103 42.7026 35.3569 42.5533 35.2503C42.4253 35.1436 42.2973 35.0049 42.1693 34.8343C42.0626 34.6636 41.9773 34.4823 41.9133 34.2903C41.8493 34.1196 41.8173 33.9489 41.8173 33.7783C41.8173 33.6503 41.8279 33.5756 41.8493 33.5543L45.0493 23.1543L49.6892 26.9943L48.7613 29.9703H52.9213L54.0733 26.2583L46.3613 18.8343L49.9133 7.21827H64.0253C64.1746 7.21827 64.3133 7.27161 64.4413 7.37827C64.5906 7.48494 64.7186 7.62361 64.8253 7.79427C64.9533 7.96494 65.0493 8.14627 65.1133 8.33827C65.1773 8.53027 65.2093 8.70094 65.2093 8.85027C65.2093 8.97827 65.1986 9.05294 65.1773 9.07427L62.2013 18.8343L57.5293 14.9623L58.2333 12.6583H54.1373L53.2733 15.4423L60.9533 22.8663L57.1133 35.4103ZM162.567 23.1863L167.943 20.1463L170.247 12.6583H165.671L163.047 21.2343L161.223 22.5783L161.575 26.0023L158.695 35.4103H152.839L160.263 11.1543L158.279 7.21827H176.039C176.188 7.21827 176.327 7.27161 176.455 7.37827C176.604 7.48494 176.732 7.62361 176.839 7.79427C176.967 7.96494 177.063 8.14627 177.127 8.33827C177.191 8.53027 177.223 8.70094 177.223 8.85027C177.223 8.97827 177.212 9.05294 177.191 9.07427L172.775 23.5703L163.175 28.9463L162.567 23.1863Z" fill="#3C827E"/>
<path d="M79.7455 9.97027L77.7615 16.4343H73.0895L73.7295 14.3223H71.8095L70.4015 18.9303H76.3855L70.9775 23.2823H69.0575L67.5855 28.1783H69.5055L70.1455 26.0663H74.8175L72.8335 32.5303H61.5695L67.5215 13.1063L65.9215 9.97027H79.7455ZM80.359 9.97027H87.591L82.023 28.1783H83.943L84.583 26.0663H89.255L87.271 32.5303H76.007L81.959 13.1063L80.359 9.97027ZM94.7965 9.97027H102.029L96.4605 28.1783H98.3805L99.0205 26.0663H103.693L101.709 32.5303H90.4445L96.3965 13.1063L94.7965 9.97027ZM109.234 9.97027H116.466L109.554 32.5303H104.882L110.834 13.1063L109.234 9.97027ZM117.398 32.5303H112.726L118.678 13.1063L117.078 9.97027H124.054L125.27 19.0903L128.086 9.97027H132.758L125.91 32.2743L122.998 34.6743L120.758 21.4903L117.398 32.5303ZM142.415 19.5063L144.591 22.5783L141.551 32.5303H130.287C130.031 32.5303 129.807 32.3916 129.615 32.1143C129.423 31.8156 129.327 31.5276 129.327 31.2503C129.327 31.1223 129.338 31.0476 129.359 31.0263L135.823 9.97027H147.087C147.343 9.97027 147.556 10.1196 147.727 10.4183C147.919 10.6956 148.015 10.9729 148.015 11.2503C148.015 11.3783 148.004 11.4529 147.983 11.4743L145.775 18.6743L142.063 15.6023L142.447 14.3223H139.151L137.839 18.6423H134.287L136.687 22.3863L134.927 28.1783H138.223L139.535 23.8583H138.799L136.015 19.5063H142.415ZM173.89 31.0263L180.354 9.97027H191.618C191.874 9.97027 192.088 10.1196 192.258 10.4183C192.45 10.6956 192.546 10.9729 192.546 11.2503C192.546 11.3783 192.536 11.4529 192.514 11.4743L186.082 32.5303H174.818C174.562 32.5303 174.338 32.3916 174.146 32.1143C173.954 31.8156 173.858 31.5276 173.858 31.2503C173.858 31.1223 173.869 31.0476 173.89 31.0263ZM183.682 14.3223L179.458 28.1783H182.754L186.978 14.3223H183.682ZM193.609 9.97027H200.841L193.929 32.5303H189.257L195.209 13.1063L193.609 9.97027ZM201.773 32.5303H197.101L203.053 13.1063L201.453 9.97027H208.429L209.645 19.0903L212.461 9.97027H217.133L210.285 32.2743L207.373 34.6743L205.133 21.4903L201.773 32.5303ZM232.102 16.4343H227.462L228.102 14.3223H226.918L221.35 32.5303H216.646L222.214 14.3223H220.038L217.734 9.97027H234.086L232.102 16.4343Z" fill="#0E1F1E"/>
</svg>
