<svg width="96" height="100" viewBox="0 0 96 100" fill="none" xmlns="http://www.w3.org/2000/svg">
<path d="M32.8438 59.375L48 72.5L63.1563 59.375H32.8438Z" fill="#BEBEBE"/>
<path d="M95.3438 99.9999V86.8749C95.3438 79.8437 91.125 73.5937 84.7188 70.9374L65.8125 62.9687C63.1562 61.8749 61.4375 59.2187 61.4375 56.4062V46.8749H34.5625V56.4062C34.5625 59.2187 32.8438 61.8749 30.1875 62.9687L11.2812 70.7812C4.875 73.4374 0.65625 79.8437 0.65625 86.7187V99.9999H95.3438ZM32.8437 33.5937L31.9062 32.1874C31.2812 31.2499 30.3437 30.6249 29.25 30.4687C27.6875 30.1562 26.2812 31.5624 26.5937 33.1249L27.6875 38.4374C28.1562 40.7812 29.875 42.4999 32.0625 43.1249L33.625 43.5937L32.8437 33.5937ZM62.375 43.5937L63.9375 43.1249C66.125 42.4999 67.8438 40.6249 68.3125 38.4374L69.4062 33.1249C69.7188 31.5624 68.3125 30.1562 66.75 30.4687C65.6562 30.6249 64.7188 31.2499 64.0937 32.1874L63.1562 33.5937L62.375 43.5937Z" fill="#F0B496"/>
<path d="M34.5625 55.1562C35.0313 55.7812 35.3437 56.4063 35.9687 56.875L39.5625 60.3125C41.125 62.0312 43.9375 62.9687 46.2812 62.9687H49.875C52.2188 62.9687 55.0312 62.0312 56.5938 60.3125L60.1875 56.875C60.6562 56.4063 61.125 55.7812 61.5938 55.1562V46.875H34.5625V55.1562Z" fill="#E6A082"/>
<path d="M49.7188 59.0625C52.0625 59.0625 54.875 58.125 56.4375 56.4062L60.0313 52.9688C61.9063 51.0938 63 48.5938 63.3125 45.9375L64.4063 35.9375C64.5625 33.9063 64.7188 31.875 64.7188 29.8438V19.6875C64.7188 11.25 57.8438 4.375 49.4063 4.375H46.5938C38.1563 4.375 31.2812 11.25 31.2812 19.6875V29.8438C31.2812 31.875 31.4375 33.9063 31.5938 35.9375L32.6875 45.9375C33 48.5938 34.0938 51.0938 35.9688 52.9688L39.5625 56.4062C41.125 58.125 43.9375 59.0625 46.2813 59.0625H49.7188Z" fill="#F0C8AA"/>
<path d="M63.1563 11.4062C62.2188 10.7812 60.9688 11.0937 60.3438 12.0312C61.4375 10.1562 61.2813 8.4375 60.5 7.03125C58.7813 5.15625 56.5938 3.75 54.0938 2.96875C53.9375 2.96875 53.7813 2.96875 53.7813 2.8125C52.375 2.34375 50.9688 2.1875 49.4063 2.1875H46.5938C38.1563 2.1875 31.2812 9.0625 31.2812 17.5V27.6563L31.5938 29.5312C33.3125 24.8438 33.9375 22.0312 33.9375 20.1562C34.0938 17.9688 35.5 16.25 37.375 15.4688C38.9375 14.8438 40.6562 14.6875 42.2188 15.3125L43.3125 15.625C46.5938 16.5625 49.4063 16.5625 52.5313 15.625L53.625 15.3125C55.1875 14.8438 56.9063 14.8438 58.4688 15.4688C60.5 16.25 61.75 18.125 61.9063 20.1562C61.9063 22.5 62.2188 24.5312 64.25 29.5312L64.5625 27.6563V17.5C64.5625 15.3125 64.0938 13.2812 63.3125 11.5625C63.4688 11.5625 63.3125 11.4062 63.1563 11.4062Z" fill="#E6A082"/>
<path d="M59.7185 11.25L60.4998 10C64.0935 4.0625 54.7185 0 47.8435 0C42.3748 0 37.2185 2.03125 33.156 5.625C27.6873 10.625 29.0935 20.1562 29.8748 30.625L31.4373 31.7187L32.3748 27.9688C32.9998 25.3125 33.4685 22.5 33.781 19.8438L33.9373 18.5938C34.0935 16.4062 35.4998 14.6875 37.3748 13.9062C38.9373 13.2812 40.656 13.125 42.2185 13.75H43.3123C46.5935 14.6875 49.406 14.6875 52.531 13.75L53.6248 13.4375C55.1873 12.9688 56.906 12.9688 58.4685 13.5938C60.4998 14.375 61.7498 16.25 61.906 18.2812L62.0623 19.5312C62.2185 22.3438 62.6873 25 63.4685 27.6563L64.406 31.4062L65.9685 30.3125C66.7498 21.0938 68.3123 12.6562 63.156 9.375C62.2185 8.75 60.9685 9.0625 60.3435 10L59.7185 11.25Z" fill="#6B4C38"/>
<path d="M63.1563 31.5625V32.9687C60.6563 32.8125 59.0938 32.8125 56.5938 32.8125C55.1875 32.8125 53.9375 32.9688 52.5313 33.125L50.8125 33.4375L50.5 32.5C50.3437 32.0312 50.3437 31.5625 50.5 31.25C50.6562 30.9375 51.125 30.625 51.5938 30.4687L52.6875 30.3125C53.9375 30.1562 55.1875 30 56.5938 30H57.5312C59.5625 30 60.6563 30 61.9063 30.1562C62.6875 30.1562 63.1563 30.7812 63.1563 31.5625ZM45.5 32.5L45.1875 33.4375L43.4688 33.125C42.0625 32.9688 40.8125 32.8125 39.4063 32.8125C36.9063 32.8125 35.3438 32.8125 32.8438 32.9687V31.5625C32.8438 30.7812 33.4688 30.1562 34.25 30.1562C35.5 30 36.5938 30 38.625 30H39.5625C40.8125 30 42.2188 30.1562 43.4688 30.3125L44.5625 30.4687C45.0312 30.4687 45.3438 30.7812 45.6563 31.25C45.6563 31.7187 45.6563 32.1875 45.5 32.5Z" fill="#E6A082"/>
<path d="M65.3437 29.2188L63.4688 29.0625C60.9688 28.9063 59.25 28.9062 56.75 28.9062C55.3437 28.9062 54.0938 29.0625 52.6875 29.2188L49.25 29.6875C48.3125 29.8438 47.5312 29.8438 46.75 29.6875L43.4688 29.2188C42.0625 29.0625 40.8125 28.9062 39.4062 28.9062C36.75 28.9062 35.1875 28.9063 32.6875 29.0625L30.8125 29.2188C30.5 29.2188 30.1875 29.5313 30.1875 29.8438V31.0937C30.1875 31.4062 30.3437 31.7187 30.5 31.875C30.8125 32.1875 31.125 32.6563 31.2812 33.125L31.9063 35.625C32.0625 36.4062 32.6875 37.0312 33.625 37.3437C36.5937 38.125 39.875 38.2813 43 37.8125C44.0937 37.6563 44.875 37.0313 45.3437 36.0938L46.5938 32.9688C46.9062 32.3438 47.5312 31.875 48.1562 31.875C48.7812 31.875 49.4062 32.3438 49.7187 32.9688L50.9688 36.0938C51.4375 37.0313 52.2188 37.6563 53.3125 37.8125C56.2813 38.125 59.7188 37.9687 62.6875 37.3437C63.4688 37.1875 64.0938 36.5625 64.4062 35.625L65.0312 33.125C65.1875 32.6563 65.3438 32.1875 65.8125 31.875C65.9688 31.7187 66.125 31.4062 66.125 31.0937V29.8438C65.8125 29.5313 65.6562 29.2188 65.3437 29.2188ZM45.5 32.5L45.1875 33.4375L44.25 35.625C43.9375 36.25 43.4688 36.5625 42.8438 36.7188C41.75 36.875 40.6563 36.875 39.7188 36.875C37.6875 36.875 35.6562 36.7188 33.9375 36.25C33.4687 36.0938 33.1562 35.7813 33 35.4688V31.7187C33 30.9375 33.625 30.3125 34.4062 30.3125C35.6562 30.1562 36.75 30.1562 38.7812 30.1562H39.7188C40.9688 30.1562 42.375 30.3125 43.625 30.4688L44.7187 30.625C45.1875 30.625 45.5 30.9375 45.8125 31.4063C45.6562 31.7188 45.6562 32.1875 45.5 32.5ZM63.1562 35V35.3125C63 35.7813 62.6875 36.0938 62.2187 36.25C60.5 36.7188 58.4688 36.875 56.4375 36.875C55.3438 36.875 54.25 36.875 53.3125 36.7188C52.6875 36.7188 52.0625 36.25 51.9062 35.625L50.9688 33.4375L50.6562 32.5C50.5 32.0312 50.5 31.5625 50.6562 31.25C50.8125 30.9375 51.2813 30.625 51.75 30.4688L52.8437 30.3125C54.0937 30.1562 55.3437 30 56.75 30H57.6875C59.7188 30 60.8125 30 62.0625 30.1562C62.8438 30.1562 63.4688 30.7813 63.4688 31.5625V35H63.1562Z" fill="#5D5D5D"/>
<path d="M84.7188 70.7813L65.8125 62.8125C65.1875 62.5 64.7188 62.1875 64.25 61.875L48 72.5C48 72.5 38.625 66.5625 31.5937 62.1875C31.125 62.5 30.6562 62.8125 30.1875 62.9688L11.2812 70.7813C4.875 73.4375 0.65625 79.8438 0.65625 86.7188V100H95.3438V86.875C95.3438 79.8438 91.125 73.5938 84.7188 70.7813Z" fill="#3C3C3C"/>
<path d="M34.875 100H58.9375L70.9688 65.1562L65.8125 62.9687C65.1875 62.6562 64.7188 62.3438 64.25 62.0312L48 72.5C48 72.5 38.625 66.5625 31.5937 62.1875C31.125 62.5 30.6562 62.8125 30.1875 62.9687L25.5 65L34.875 100Z" fill="#DCDCDC"/>
<path d="M25.9688 64.6875L39.0937 85.1563L48 76.5625L30.1875 62.9688L25.9688 64.6875ZM70.6562 65L56.9063 85.1563L48 76.5625L65.8125 62.9688L70.6562 65Z" fill="#C8C8C8"/>
<path d="M28 63.9063L39.0937 81.0938L48 72.5L32.8437 59.375L28 63.9063ZM68 63.9063L56.9062 81.0938L48 72.5L63.1562 59.375L68 63.9063Z" fill="#F0F0F0"/>
<path d="M69.0938 100L78.7813 87.6562L69.4063 84.0625L76.2812 82.8125L76.4375 67.3437L68 63.9062L54.25 100H69.0938ZM26.9062 100L17.2188 87.6562L26.5937 84.0625L19.7187 82.8125L19.5625 67.3437L28 63.9062L41.75 100H26.9062Z" fill="#5D5D5D"/>
<path d="M43.1562 100L45.5 82.9687L43.1562 77.1875L48 72.5L52.8437 77.1875L50.5 82.9687L52.8437 100H43.1562Z" fill="#FF7878"/>
<path d="M43.1562 77.1875L44.4063 80.1562L48 76.5625L51.5937 80.1562L52.8437 77.1875L48 72.5L43.1562 77.1875Z" fill="#E65A5A"/>
</svg>
